<?xml version="1.0"?>
<svg width="800" height="600"
     xmlns="http://www.w3.org/2000/svg"
     shape-rendering="crispEdges">
<polygon points="397,299 406,301 390,235" style="fill:rgb(166,80,75)"/>
<polygon points="390,235 361,242 397,299" style="fill:rgb(199,122,119)"/>
<polygon points="454,235 388,216 390,235" style="fill:rgb(202,128,123)"/>
<polygon points="390,235 388,216 361,242" style="fill:rgb(209,157,150)"/>
<polygon points="406,301 454,235 390,235" style="fill:rgb(214,139,133)"/>
<polygon points="361,242 358,306 397,299" style="fill:rgb(203,131,125)"/>
<polygon points="397,299 371,367 406,301" style="fill:rgb(200,113,105)"/>
<polygon points="361,242 332,274 358,306" style="fill:rgb(217,168,151)"/>
<polygon points="341,195 333,245 361,242" style="fill:rgb(163,110,92)"/>
<polygon points="361,242 333,245 332,274" style="fill:rgb(166,104,83)"/>
<polygon points="406,301 491,267 454,235" style="fill:rgb(220,151,143)"/>
<polygon points="510,235 469,208 454,235" style="fill:rgb(189,134,121)"/>
<polygon points="454,235 469,208 388,216" style="fill:rgb(212,156,145)"/>
<polygon points="332,274 344,320 358,306" style="fill:rgb(214,165,144)"/>
<polygon points="358,306 371,367 397,299" style="fill:rgb(202,120,111)"/>
<polygon points="368,156 341,195 388,216" style="fill:rgb(148,100,83)"/>
<polygon points="388,216 341,195 361,242" style="fill:rgb(159,97,83)"/>
<polygon points="341,195 318,222 333,245" style="fill:rgb(128,82,61)"/>
<polygon points="333,245 303,276 332,274" style="fill:rgb(160,106,86)"/>
<polygon points="332,274 303,276 344,320" style="fill:rgb(164,103,85)"/>
<polygon points="491,267 510,235 454,235" style="fill:rgb(186,119,109)"/>
<polygon points="293,272 303,276 333,245" style="fill:rgb(190,144,123)"/>
<polygon points="349,357 371,367 344,320" style="fill:rgb(197,139,123)"/>
<polygon points="344,320 371,367 358,306" style="fill:rgb(217,157,138)"/>
<polygon points="406,301 485,349 491,267" style="fill:rgb(214,132,123)"/>
<polygon points="337,349 349,357 344,320" style="fill:rgb(156,89,72)"/>
<polygon points="298,339 337,349 344,320" style="fill:rgb(150,88,69)"/>
<polygon points="440,395 485,349 406,301" style="fill:rgb(178,88,78)"/>
<polygon points="491,267 524,264 510,235" style="fill:rgb(171,111,94)"/>
<polygon points="530,316 524,264 491,267" style="fill:rgb(182,119,104)"/>
<polygon points="379,384 393,379 371,367" style="fill:rgb(187,232,241)"/>
<polygon points="371,367 393,379 406,301" style="fill:rgb(196,111,100)"/>
<polygon points="510,235 496,189 469,208" style="fill:rgb(146,93,76)"/>
<polygon points="469,208 453,158 388,216" style="fill:rgb(166,100,89)"/>
<polygon points="515,183 496,189 510,235" style="fill:rgb(51,51,25)"/>
<polygon points="496,189 453,158 469,208" style="fill:rgb(154,102,84)"/>
<polygon points="318,222 293,272 333,245" style="fill:rgb(141,90,68)"/>
<polygon points="303,276 298,339 344,320" style="fill:rgb(164,101,85)"/>
<polygon points="397,142 368,156 388,216" style="fill:rgb(144,93,73)"/>
<polygon points="341,195 305,179 318,222" style="fill:rgb(118,111,74)"/>
<polygon points="368,156 347,163 341,195" style="fill:rgb(48,66,36)"/>
<polygon points="318,222 267,275 293,272" style="fill:rgb(117,88,52)"/>
<polygon points="347,163 336,169 341,195" style="fill:rgb(145,142,103)"/>
<polygon points="352,384 379,384 371,367" style="fill:rgb(99,155,198)"/>
<polygon points="393,379 440,395 406,301" style="fill:rgb(200,113,101)"/>
<polygon points="352,384 371,367 349,357" style="fill:rgb(89,142,187)"/>
<polygon points="453,158 397,142 388,216" style="fill:rgb(154,97,81)"/>
<polygon points="368,156 347,145 347,163" style="fill:rgb(30,60,37)"/>
<polygon points="459,131 442,145 453,158" style="fill:rgb(114,126,91)"/>
<polygon points="453,158 442,145 397,142" style="fill:rgb(132,90,56)"/>
<polygon points="485,349 530,316 491,267" style="fill:rgb(206,140,124)"/>
<polygon points="337,349 352,384 349,357" style="fill:rgb(127,181,220)"/>
<polygon points="304,373 352,384 337,349" style="fill:rgb(167,222,240)"/>
<polygon points="404,413 408,398 379,384" style="fill:rgb(86,128,164)"/>
<polygon points="379,384 408,398 393,379" style="fill:rgb(192,233,244)"/>
<polygon points="408,398 440,395 393,379" style="fill:rgb(239,244,245)"/>
<polygon points="485,349 509,405 530,316" style="fill:rgb(182,104,88)"/>
<polygon points="274,329 298,339 303,276" style="fill:rgb(203,155,131)"/>
<polygon points="563,246 510,235 524,264" style="fill:rgb(169,149,142)"/>
<polygon points="556,189 515,183 510,235" style="fill:rgb(108,115,101)"/>
<polygon points="496,189 484,148 453,158" style="fill:rgb(96,75,43)"/>
<polygon points="347,145 336,169 347,163" style="fill:rgb(43,62,17)"/>
<polygon points="315,168 341,195 336,169" style="fill:rgb(178,169,137)"/>
<polygon points="315,168 305,179 341,195" style="fill:rgb(163,151,113)"/>
<polygon points="351,113 347,145 368,156" style="fill:rgb(23,53,29)"/>
<polygon points="339,138 315,168 336,169" style="fill:rgb(178,179,155)"/>
<polygon points="503,145 484,148 496,189" style="fill:rgb(46,75,31)"/>
<polygon points="298,339 301,353 337,349" style="fill:rgb(74,107,140)"/>
<polygon points="228,235 267,275 318,222" style="fill:rgb(76,84,27)"/>
<polygon points="293,272 274,329 303,276" style="fill:rgb(194,150,127)"/>
<polygon points="298,339 270,365 301,353" style="fill:rgb(83,110,138)"/>
<polygon points="484,148 459,131 453,158" style="fill:rgb(147,162,140)"/>
<polygon points="442,145 433,102 397,142" style="fill:rgb(15,34,8)"/>
<polygon points="351,113 339,138 347,145" style="fill:rgb(133,139,103)"/>
<polygon points="408,398 442,405 440,395" style="fill:rgb(187,231,244)"/>
<polygon points="440,395 509,405 485,349" style="fill:rgb(189,101,87)"/>
<polygon points="315,168 299,147 305,179" style="fill:rgb(150,144,97)"/>
<polygon points="347,145 339,138 336,169" style="fill:rgb(124,133,97)"/>
<polygon points="351,113 368,156 397,142" style="fill:rgb(27,52,22)"/>
<polygon points="349,404 404,413 379,384" style="fill:rgb(104,130,153)"/>
<polygon points="408,398 404,413 442,405" style="fill:rgb(101,132,161)"/>
<polygon points="267,275 274,329 293,272" style="fill:rgb(143,92,68)"/>
<polygon points="294,389 304,373 270,365" style="fill:rgb(140,146,155)"/>
<polygon points="301,353 304,373 337,349" style="fill:rgb(107,156,198)"/>
<polygon points="352,384 349,404 379,384" style="fill:rgb(110,151,188)"/>
<polygon points="323,400 349,404 352,384" style="fill:rgb(121,137,151)"/>
<polygon points="515,183 503,145 496,189" style="fill:rgb(34,61,28)"/>
<polygon points="484,148 482,115 459,131" style="fill:rgb(81,110,76)"/>
<polygon points="404,413 442,416 442,405" style="fill:rgb(107,124,141)"/>
<polygon points="442,405 509,405 440,395" style="fill:rgb(190,214,232)"/>
<polygon points="581,314 563,246 524,264" style="fill:rgb(178,154,147)"/>
<polygon points="515,183 536,155 503,145" style="fill:rgb(46,79,37)"/>
<polygon points="349,404 402,423 404,413" style="fill:rgb(172,167,152)"/>
<polygon points="404,413 439,433 442,416" style="fill:rgb(140,140,134)"/>
<polygon points="304,373 323,400 352,384" style="fill:rgb(115,143,169)"/>
<polygon points="349,404 377,441 402,423" style="fill:rgb(241,238,227)"/>
<polygon points="339,138 299,147 315,168" style="fill:rgb(162,158,120)"/>
<polygon points="305,179 228,235 318,222" style="fill:rgb(65,87,16)"/>
<polygon points="323,400 332,408 349,404" style="fill:rgb(178,176,168)"/>
<polygon points="392,98 351,113 397,142" style="fill:rgb(20,49,14)"/>
<polygon points="339,138 324,114 299,147" style="fill:rgb(86,123,68)"/>
<polygon points="465,98 433,102 459,131" style="fill:rgb(39,81,19)"/>
<polygon points="459,131 433,102 442,145" style="fill:rgb(11,27,10)"/>
<polygon points="563,246 556,189 510,235" style="fill:rgb(105,100,83)"/>
<polygon points="503,145 482,115 484,148" style="fill:rgb(44,64,34)"/>
<polygon points="512,98 482,115 503,145" style="fill:rgb(84,125,78)"/>
<polygon points="556,189 536,155 515,183" style="fill:rgb(83,102,69)"/>
<polygon points="433,102 392,98 397,142" style="fill:rgb(27,65,20)"/>
<polygon points="304,373 294,389 323,400" style="fill:rgb(148,152,158)"/>
<polygon points="323,400 306,411 332,408" style="fill:rgb(171,198,224)"/>
<polygon points="270,365 304,373 301,353" style="fill:rgb(106,130,156)"/>
<polygon points="402,423 439,433 404,413" style="fill:rgb(182,175,155)"/>
<polygon points="484,431 509,405 442,405" style="fill:rgb(95,118,142)"/>
<polygon points="444,447 439,433 402,423" style="fill:rgb(236,231,218)"/>
<polygon points="239,348 270,365 274,329" style="fill:rgb(90,92,90)"/>
<polygon points="274,329 270,365 298,339" style="fill:rgb(78,91,99)"/>
<polygon points="484,431 442,405 442,416" style="fill:rgb(101,112,123)"/>
<polygon points="530,316 581,314 524,264" style="fill:rgb(153,112,101)"/>
<polygon points="563,246 568,198 556,189" style="fill:rgb(130,132,125)"/>
<polygon points="556,189 573,177 536,155" style="fill:rgb(59,97,44)"/>
<polygon points="331,99 324,114 351,113" style="fill:rgb(145,157,132)"/>
<polygon points="351,113 324,114 339,138" style="fill:rgb(105,129,75)"/>
<polygon points="482,115 465,98 459,131" style="fill:rgb(60,111,38)"/>
<polygon points="433,102 419,59 392,98" style="fill:rgb(87,121,82)"/>
<polygon points="500,79 465,98 482,115" style="fill:rgb(99,142,92)"/>
<polygon points="509,405 581,314 530,316" style="fill:rgb(165,101,82)"/>
<polygon points="563,246 608,228 568,198" style="fill:rgb(169,162,162)"/>
<polygon points="294,389 306,411 323,400" style="fill:rgb(159,183,214)"/>
<polygon points="332,408 377,441 349,404" style="fill:rgb(214,209,195)"/>
<polygon points="235,377 306,411 294,389" style="fill:rgb(136,160,190)"/>
<polygon points="370,458 377,441 332,408" style="fill:rgb(180,205,223)"/>
<polygon points="444,447 484,431 439,433" style="fill:rgb(244,242,235)"/>
<polygon points="439,433 484,431 442,416" style="fill:rgb(159,157,146)"/>
<polygon points="209,205 305,179 299,147" style="fill:rgb(85,122,52)"/>
<polygon points="209,205 228,235 305,179" style="fill:rgb(57,92,24)"/>
<polygon points="267,275 234,327 274,329" style="fill:rgb(150,103,80)"/>
<polygon points="351,67 331,99 351,113" style="fill:rgb(107,120,84)"/>
<polygon points="324,114 285,129 299,147" style="fill:rgb(94,133,83)"/>
<polygon points="310,94 285,129 324,114" style="fill:rgb(186,179,155)"/>
<polygon points="377,441 444,447 402,423" style="fill:rgb(250,248,241)"/>
<polygon points="220,276 234,327 267,275" style="fill:rgb(166,131,107)"/>
<polygon points="270,365 235,377 294,389" style="fill:rgb(181,180,178)"/>
<polygon points="607,196 573,177 568,198" style="fill:rgb(55,92,19)"/>
<polygon points="568,198 573,177 556,189" style="fill:rgb(26,55,16)"/>
<polygon points="527,95 512,98 503,145" style="fill:rgb(38,89,32)"/>
<polygon points="377,441 445,450 444,447" style="fill:rgb(204,190,167)"/>
<polygon points="444,447 484,448 484,431" style="fill:rgb(244,241,235)"/>
<polygon points="234,327 239,348 274,329" style="fill:rgb(141,105,77)"/>
<polygon points="228,235 220,276 267,275" style="fill:rgb(110,90,31)"/>
<polygon points="234,327 219,350 239,348" style="fill:rgb(160,134,88)"/>
<polygon points="573,177 557,141 536,155" style="fill:rgb(57,96,53)"/>
<polygon points="449,61 446,74 481,69" style="fill:rgb(146,171,128)"/>
<polygon points="465,98 446,74 433,102" style="fill:rgb(81,133,50)"/>
<polygon points="327,74 317,81 331,99" style="fill:rgb(171,166,145)"/>
<polygon points="527,95 503,145 536,155" style="fill:rgb(15,38,11)"/>
<polygon points="306,411 370,458 332,408" style="fill:rgb(155,194,230)"/>
<polygon points="377,441 370,458 445,450" style="fill:rgb(148,138,127)"/>
<polygon points="484,457 484,448 445,450" style="fill:rgb(123,109,91)"/>
<polygon points="445,450 484,448 444,447" style="fill:rgb(198,181,157)"/>
<polygon points="484,431 548,438 509,405" style="fill:rgb(121,126,127)"/>
<polygon points="608,407 612,310 581,314" style="fill:rgb(141,105,85)"/>
<polygon points="331,99 310,94 324,114" style="fill:rgb(216,218,205)"/>
<polygon points="317,81 310,94 331,99" style="fill:rgb(219,219,207)"/>
<polygon points="449,61 441,67 446,74" style="fill:rgb(150,178,152)"/>
<polygon points="446,74 441,67 433,102" style="fill:rgb(96,145,79)"/>
<polygon points="612,310 608,228 563,246" style="fill:rgb(168,150,143)"/>
<polygon points="581,129 574,122 557,141" style="fill:rgb(50,106,46)"/>
<polygon points="608,228 604,208 568,198" style="fill:rgb(130,115,105)"/>
<polygon points="188,263 208,297 220,276" style="fill:rgb(196,172,102)"/>
<polygon points="220,276 208,297 234,327" style="fill:rgb(189,162,80)"/>
<polygon points="451,476 484,457 445,450" style="fill:rgb(54,41,34)"/>
<polygon points="484,448 548,438 484,431" style="fill:rgb(213,206,192)"/>
<polygon points="351,67 351,113 392,98" style="fill:rgb(26,62,21)"/>
<polygon points="275,85 263,102 285,129" style="fill:rgb(155,135,92)"/>
<polygon points="441,67 419,59 433,102" style="fill:rgb(47,89,34)"/>
<polygon points="407,57 351,67 392,98" style="fill:rgb(72,99,63)"/>
<polygon points="222,363 235,377 239,348" style="fill:rgb(73,78,78)"/>
<polygon points="239,348 235,377 270,365" style="fill:rgb(124,128,133)"/>
<polygon points="356,489 368,476 370,458" style="fill:rgb(110,112,133)"/>
<polygon points="557,141 527,95 536,155" style="fill:rgb(26,65,35)"/>
<polygon points="512,98 500,79 482,115" style="fill:rgb(53,104,38)"/>
<polygon points="441,67 449,61 419,59" style="fill:rgb(151,177,135)"/>
<polygon points="574,122 527,95 557,141" style="fill:rgb(18,47,14)"/>
<polygon points="527,95 500,79 512,98" style="fill:rgb(56,109,33)"/>
<polygon points="608,407 581,314 509,405" style="fill:rgb(163,114,92)"/>
<polygon points="581,314 612,310 563,246" style="fill:rgb(165,134,128)"/>
<polygon points="481,69 446,74 465,98" style="fill:rgb(59,106,31)"/>
<polygon points="351,67 327,74 331,99" style="fill:rgb(187,178,149)"/>
<polygon points="193,311 219,350 234,327" style="fill:rgb(198,178,126)"/>
<polygon points="439,31 407,57 419,59" style="fill:rgb(99,137,161)"/>
<polygon points="419,59 407,57 392,98" style="fill:rgb(110,141,110)"/>
<polygon points="500,79 481,69 465,98" style="fill:rgb(72,123,39)"/>
<polygon points="200,193 209,205 285,129" style="fill:rgb(107,135,62)"/>
<polygon points="285,129 209,205 299,147" style="fill:rgb(107,137,70)"/>
<polygon points="228,235 188,263 220,276" style="fill:rgb(157,137,74)"/>
<polygon points="656,204 607,196 604,208" style="fill:rgb(69,110,27)"/>
<polygon points="604,208 607,196 568,198" style="fill:rgb(67,91,27)"/>
<polygon points="623,154 607,196 654,185" style="fill:rgb(96,116,85)"/>
<polygon points="219,350 222,363 239,348" style="fill:rgb(120,105,71)"/>
<polygon points="209,205 200,230 228,235" style="fill:rgb(64,97,12)"/>
<polygon points="363,19 345,62 351,67" style="fill:rgb(208,209,199)"/>
<polygon points="351,67 345,62 327,74" style="fill:rgb(198,198,187)"/>
<polygon points="298,61 302,81 317,81" style="fill:rgb(225,229,230)"/>
<polygon points="317,81 302,81 310,94" style="fill:rgb(228,228,223)"/>
<polygon points="298,61 317,81 327,74" style="fill:rgb(76,92,115)"/>
<polygon points="356,489 370,458 306,411" style="fill:rgb(124,146,182)"/>
<polygon points="370,458 368,476 445,450" style="fill:rgb(82,69,70)"/>
<polygon points="368,476 451,476 445,450" style="fill:rgb(45,33,31)"/>
<polygon points="581,129 557,141 573,177" style="fill:rgb(88,125,85)"/>
<polygon points="439,31 458,51 450,30" style="fill:rgb(38,78,66)"/>
<polygon points="275,85 285,129 310,94" style="fill:rgb(151,133,94)"/>
<polygon points="599,124 581,129 623,154" style="fill:rgb(101,117,80)"/>
<polygon points="481,69 505,39 458,51" style="fill:rgb(123,153,169)"/>
<polygon points="450,30 458,51 505,39" style="fill:rgb(113,149,179)"/>
<polygon points="481,69 458,51 449,61" style="fill:rgb(92,120,105)"/>
<polygon points="449,61 439,31 419,59" style="fill:rgb(105,139,147)"/>
<polygon points="316,29 327,74 345,62" style="fill:rgb(84,109,137)"/>
<polygon points="188,263 193,311 208,297" style="fill:rgb(182,151,69)"/>
<polygon points="208,297 193,311 234,327" style="fill:rgb(210,188,121)"/>
<polygon points="219,350 186,361 222,363" style="fill:rgb(139,114,60)"/>
<polygon points="188,232 188,263 200,230" style="fill:rgb(152,152,66)"/>
<polygon points="200,230 188,263 228,235" style="fill:rgb(99,119,30)"/>
<polygon points="195,181 200,193 285,129" style="fill:rgb(169,162,117)"/>
<polygon points="209,205 188,232 200,230" style="fill:rgb(105,138,61)"/>
<polygon points="550,447 484,448 484,457" style="fill:rgb(105,95,82)"/>
<polygon points="550,447 548,438 484,448" style="fill:rgb(192,185,166)"/>
<polygon points="200,193 188,232 209,205" style="fill:rgb(139,138,71)"/>
<polygon points="302,81 275,85 310,94" style="fill:rgb(105,108,101)"/>
<polygon points="284,64 275,85 302,81" style="fill:rgb(34,49,85)"/>
<polygon points="478,506 491,477 451,476" style="fill:rgb(71,78,87)"/>
<polygon points="451,476 491,477 484,457" style="fill:rgb(33,30,29)"/>
<polygon points="551,454 550,447 484,457" style="fill:rgb(69,60,51)"/>
<polygon points="548,438 608,407 509,405" style="fill:rgb(125,125,125)"/>
<polygon points="336,509 356,489 288,495" style="fill:rgb(83,96,116)"/>
<polygon points="368,476 410,515 451,476" style="fill:rgb(71,79,87)"/>
<polygon points="205,125 195,181 285,129" style="fill:rgb(162,137,85)"/>
<polygon points="200,193 165,215 188,232" style="fill:rgb(204,183,118)"/>
<polygon points="205,125 285,129 263,102" style="fill:rgb(158,132,78)"/>
<polygon points="316,29 298,61 327,74" style="fill:rgb(23,51,101)"/>
<polygon points="383,17 351,67 407,57" style="fill:rgb(115,136,144)"/>
<polygon points="491,477 551,454 484,457" style="fill:rgb(32,24,21)"/>
<polygon points="599,429 608,407 548,438" style="fill:rgb(172,170,158)"/>
<polygon points="481,69 500,79 505,39" style="fill:rgb(106,132,130)"/>
<polygon points="458,51 439,31 449,61" style="fill:rgb(29,69,46)"/>
<polygon points="623,154 581,129 573,177" style="fill:rgb(37,66,28)"/>
<polygon points="581,129 599,111 574,122" style="fill:rgb(43,80,54)"/>
<polygon points="574,122 575,92 527,95" style="fill:rgb(17,47,16)"/>
<polygon points="298,61 284,64 302,81" style="fill:rgb(212,215,217)"/>
<polygon points="275,85 237,96 263,102" style="fill:rgb(62,70,76)"/>
<polygon points="543,53 500,79 527,95" style="fill:rgb(88,113,111)"/>
<polygon points="599,111 575,92 574,122" style="fill:rgb(15,38,26)"/>
<polygon points="607,196 623,154 573,177" style="fill:rgb(72,99,47)"/>
<polygon points="599,124 599,111 581,129" style="fill:rgb(66,87,70)"/>
<polygon points="656,204 604,208 608,228" style="fill:rgb(100,94,64)"/>
<polygon points="233,58 237,96 275,85" style="fill:rgb(34,54,87)"/>
<polygon points="222,363 204,408 235,377" style="fill:rgb(81,83,82)"/>
<polygon points="235,377 204,408 306,411" style="fill:rgb(112,126,143)"/>
<polygon points="193,311 186,361 219,350" style="fill:rgb(151,120,54)"/>
<polygon points="136,319 186,361 193,311" style="fill:rgb(205,174,90)"/>
<polygon points="136,319 193,311 188,263" style="fill:rgb(213,183,106)"/>
<polygon points="599,429 548,438 597,445" style="fill:rgb(238,235,222)"/>
<polygon points="612,310 656,204 608,228" style="fill:rgb(153,138,127)"/>
<polygon points="575,92 551,66 527,95" style="fill:rgb(21,46,49)"/>
<polygon points="617,132 599,111 599,124" style="fill:rgb(15,38,72)"/>
<polygon points="578,78 543,53 551,66" style="fill:rgb(112,145,173)"/>
<polygon points="543,53 505,39 500,79" style="fill:rgb(127,151,159)"/>
<polygon points="623,154 617,132 599,124" style="fill:rgb(45,72,89)"/>
<polygon points="281,46 274,58 284,64" style="fill:rgb(199,203,205)"/>
<polygon points="284,64 274,58 275,85" style="fill:rgb(82,107,139)"/>
<polygon points="281,46 284,64 298,61" style="fill:rgb(202,210,218)"/>
<polygon points="237,96 205,125 263,102" style="fill:rgb(144,134,101)"/>
<polygon points="199,104 205,125 237,96" style="fill:rgb(113,117,112)"/>
<polygon points="162,187 165,215 200,193" style="fill:rgb(206,186,125)"/>
<polygon points="188,232 153,250 188,263" style="fill:rgb(213,190,117)"/>
<polygon points="162,187 200,193 195,181" style="fill:rgb(186,158,95)"/>
<polygon points="437,16 383,17 439,31" style="fill:rgb(166,191,206)"/>
<polygon points="439,31 383,17 407,57" style="fill:rgb(133,165,189)"/>
<polygon points="437,16 439,31 450,30" style="fill:rgb(51,95,74)"/>
<polygon points="356,489 410,515 368,476" style="fill:rgb(68,77,87)"/>
<polygon points="491,477 548,473 551,454" style="fill:rgb(31,28,27)"/>
<polygon points="552,497 548,473 491,477" style="fill:rgb(105,107,109)"/>
<polygon points="597,445 548,438 550,447" style="fill:rgb(213,208,190)"/>
<polygon points="186,361 204,408 222,363" style="fill:rgb(127,107,66)"/>
<polygon points="474,516 478,506 451,476" style="fill:rgb(63,60,70)"/>
<polygon points="383,17 363,19 351,67" style="fill:rgb(209,213,209)"/>
<polygon points="597,445 550,447 551,454" style="fill:rgb(137,129,112)"/>
<polygon points="431,0 437,16 435,0" style="fill:rgb(117,141,118)"/>
<polygon points="578,78 551,66 575,92" style="fill:rgb(62,101,135)"/>
<polygon points="551,66 543,53 527,95" style="fill:rgb(32,60,97)"/>
<polygon points="607,78 575,92 599,111" style="fill:rgb(21,59,53)"/>
<polygon points="602,74 578,78 575,92" style="fill:rgb(92,131,156)"/>
<polygon points="363,19 316,29 345,62" style="fill:rgb(132,152,168)"/>
<polygon points="316,29 281,46 298,61" style="fill:rgb(43,72,120)"/>
<polygon points="192,72 199,104 237,96" style="fill:rgb(145,153,152)"/>
<polygon points="685,208 656,204 689,324" style="fill:rgb(139,134,126)"/>
<polygon points="623,154 659,164 617,132" style="fill:rgb(130,158,176)"/>
<polygon points="288,495 356,489 306,411" style="fill:rgb(110,129,155)"/>
<polygon points="356,489 336,509 410,515" style="fill:rgb(41,51,67)"/>
<polygon points="165,215 153,250 188,232" style="fill:rgb(216,198,138)"/>
<polygon points="656,204 654,185 607,196" style="fill:rgb(131,151,119)"/>
<polygon points="410,515 474,516 451,476" style="fill:rgb(55,52,60)"/>
<polygon points="478,506 552,497 491,477" style="fill:rgb(62,67,78)"/>
<polygon points="154,150 162,187 195,181" style="fill:rgb(160,133,70)"/>
<polygon points="165,215 120,236 153,250" style="fill:rgb(181,158,95)"/>
<polygon points="617,132 611,102 599,111" style="fill:rgb(11,46,105)"/>
<polygon points="633,105 611,102 617,132" style="fill:rgb(34,77,135)"/>
<polygon points="204,408 288,495 306,411" style="fill:rgb(106,120,135)"/>
<polygon points="566,475 551,454 548,473" style="fill:rgb(28,24,24)"/>
<polygon points="598,453 597,445 551,454" style="fill:rgb(110,100,85)"/>
<polygon points="660,421 650,405 608,407" style="fill:rgb(140,139,134)"/>
<polygon points="552,497 566,475 548,473" style="fill:rgb(120,120,120)"/>
<polygon points="233,58 275,85 274,58" style="fill:rgb(71,96,127)"/>
<polygon points="205,125 154,150 195,181" style="fill:rgb(154,132,79)"/>
<polygon points="435,0 437,16 450,30" style="fill:rgb(74,113,78)"/>
<polygon points="437,16 431,0 383,17" style="fill:rgb(216,226,230)"/>
<polygon points="383,17 378,0 363,19" style="fill:rgb(220,227,227)"/>
<polygon points="363,19 378,0 316,29" style="fill:rgb(210,222,227)"/>
<polygon points="435,0 450,30 505,39" style="fill:rgb(192,212,221)"/>
<polygon points="566,475 598,453 551,454" style="fill:rgb(46,39,37)"/>
<polygon points="660,421 608,407 599,429" style="fill:rgb(166,164,153)"/>
<polygon points="685,208 667,174 656,204" style="fill:rgb(111,136,101)"/>
<polygon points="536,30 435,0 505,39" style="fill:rgb(220,232,237)"/>
<polygon points="431,0 378,0 383,17" style="fill:rgb(214,216,214)"/>
<polygon points="613,60 536,30 543,53" style="fill:rgb(217,227,232)"/>
<polygon points="543,53 536,30 505,39" style="fill:rgb(194,213,224)"/>
<polygon points="613,60 543,53 578,78" style="fill:rgb(186,208,220)"/>
<polygon points="667,174 659,164 654,185" style="fill:rgb(81,110,122)"/>
<polygon points="654,185 659,164 623,154" style="fill:rgb(130,153,157)"/>
<polygon points="316,29 267,36 281,46" style="fill:rgb(138,157,175)"/>
<polygon points="281,46 267,36 274,58" style="fill:rgb(188,183,166)"/>
<polygon points="248,23 267,36 316,29" style="fill:rgb(210,218,223)"/>
<polygon points="335,546 418,535 410,515" style="fill:rgb(61,30,19)"/>
<polygon points="410,515 418,535 474,516" style="fill:rgb(84,41,39)"/>
<polygon points="335,546 410,515 336,509" style="fill:rgb(50,45,41)"/>
<polygon points="607,78 599,111 611,102" style="fill:rgb(45,84,128)"/>
<polygon points="607,78 602,74 575,92" style="fill:rgb(31,85,46)"/>
<polygon points="267,36 233,58 274,58" style="fill:rgb(133,148,160)"/>
<polygon points="554,525 552,497 478,506" style="fill:rgb(53,34,30)"/>
<polygon points="566,475 630,485 598,453" style="fill:rgb(31,29,29)"/>
<polygon points="554,525 478,506 474,516" style="fill:rgb(80,51,44)"/>
<polygon points="186,361 183,417 204,408" style="fill:rgb(127,110,74)"/>
<polygon points="204,408 240,507 288,495" style="fill:rgb(103,108,108)"/>
<polygon points="114,381 183,417 186,361" style="fill:rgb(168,142,77)"/>
<polygon points="614,72 607,78 611,102" style="fill:rgb(115,154,159)"/>
<polygon points="656,204 667,174 654,185" style="fill:rgb(119,146,114)"/>
<polygon points="674,154 633,105 617,132" style="fill:rgb(103,138,172)"/>
<polygon points="650,405 612,310 608,407" style="fill:rgb(157,126,95)"/>
<polygon points="674,154 617,132 659,164" style="fill:rgb(132,160,181)"/>
<polygon points="660,421 597,445 668,443" style="fill:rgb(241,238,230)"/>
<polygon points="660,421 599,429 597,445" style="fill:rgb(245,243,234)"/>
<polygon points="120,236 136,319 153,250" style="fill:rgb(162,137,78)"/>
<polygon points="153,250 136,319 188,263" style="fill:rgb(214,193,129)"/>
<polygon points="267,36 232,50 233,58" style="fill:rgb(159,172,179)"/>
<polygon points="233,58 192,72 237,96" style="fill:rgb(50,73,106)"/>
<polygon points="199,104 154,150 205,125" style="fill:rgb(158,153,129)"/>
<polygon points="162,187 136,178 165,215" style="fill:rgb(160,134,72)"/>
<polygon points="142,99 154,150 199,104" style="fill:rgb(120,130,133)"/>
<polygon points="633,105 614,72 611,102" style="fill:rgb(155,185,207)"/>
<polygon points="607,78 614,72 602,74" style="fill:rgb(14,74,13)"/>
<polygon points="602,74 613,60 578,78" style="fill:rgb(171,195,194)"/>
<polygon points="689,324 656,204 612,310" style="fill:rgb(144,124,108)"/>
<polygon points="667,174 674,154 659,164" style="fill:rgb(25,55,103)"/>
<polygon points="240,507 284,521 288,495" style="fill:rgb(84,88,84)"/>
<polygon points="288,495 284,521 336,509" style="fill:rgb(46,61,80)"/>
<polygon points="679,375 689,324 612,310" style="fill:rgb(153,135,116)"/>
<polygon points="154,150 136,178 162,187" style="fill:rgb(153,133,81)"/>
<polygon points="709,203 674,154 667,174" style="fill:rgb(117,142,145)"/>
<polygon points="645,84 613,60 614,72" style="fill:rgb(73,115,82)"/>
<polygon points="645,84 614,72 633,105" style="fill:rgb(199,218,223)"/>
<polygon points="614,72 613,60 602,74" style="fill:rgb(70,110,63)"/>
<polygon points="284,521 335,546 336,509" style="fill:rgb(47,45,41)"/>
<polygon points="136,178 120,236 165,215" style="fill:rgb(161,135,72)"/>
<polygon points="232,50 192,72 233,58" style="fill:rgb(143,157,169)"/>
<polygon points="154,150 81,159 136,178" style="fill:rgb(134,133,115)"/>
<polygon points="267,36 248,23 232,50" style="fill:rgb(211,217,218)"/>
<polygon points="232,50 182,64 192,72" style="fill:rgb(178,188,191)"/>
<polygon points="378,0 248,23 316,29" style="fill:rgb(220,227,231)"/>
<polygon points="650,405 679,375 612,310" style="fill:rgb(145,121,96)"/>
<polygon points="335,546 416,560 418,535" style="fill:rgb(127,89,60)"/>
<polygon points="418,535 453,577 474,516" style="fill:rgb(127,76,54)"/>
<polygon points="183,417 240,507 204,408" style="fill:rgb(106,100,80)"/>
<polygon points="284,521 272,535 335,546" style="fill:rgb(87,75,47)"/>
<polygon points="668,443 597,445 598,453" style="fill:rgb(148,136,121)"/>
<polygon points="650,405 698,410 679,375" style="fill:rgb(121,123,130)"/>
<polygon points="507,569 554,525 474,516" style="fill:rgb(116,92,70)"/>
<polygon points="630,500 630,485 566,475" style="fill:rgb(146,143,135)"/>
<polygon points="682,120 645,84 633,105" style="fill:rgb(217,224,225)"/>
<polygon points="679,375 703,327 689,324" style="fill:rgb(139,144,150)"/>
<polygon points="689,324 724,283 685,208" style="fill:rgb(146,153,159)"/>
<polygon points="718,348 703,327 679,375" style="fill:rgb(65,81,116)"/>
<polygon points="240,507 272,535 284,521" style="fill:rgb(100,89,63)"/>
<polygon points="248,23 182,64 232,50" style="fill:rgb(214,222,224)"/>
<polygon points="192,72 142,99 199,104" style="fill:rgb(125,138,147)"/>
<polygon points="724,283 709,203 685,208" style="fill:rgb(150,161,176)"/>
<polygon points="685,208 709,203 667,174" style="fill:rgb(93,116,89)"/>
<polygon points="674,154 682,120 633,105" style="fill:rgb(194,212,223)"/>
<polygon points="696,106 682,120 734,194" style="fill:rgb(214,185,146)"/>
<polygon points="630,500 566,475 552,497" style="fill:rgb(123,124,126)"/>
<polygon points="666,461 668,443 598,453" style="fill:rgb(97,87,80)"/>
<polygon points="660,421 698,410 650,405" style="fill:rgb(154,152,143)"/>
<polygon points="182,64 142,99 192,72" style="fill:rgb(176,185,183)"/>
<polygon points="77,235 84,301 120,236" style="fill:rgb(140,127,87)"/>
<polygon points="459,584 453,577 389,592" style="fill:rgb(120,114,107)"/>
<polygon points="416,560 453,577 418,535" style="fill:rgb(120,76,46)"/>
<polygon points="453,577 416,560 389,592" style="fill:rgb(86,65,42)"/>
<polygon points="718,348 724,283 703,327" style="fill:rgb(60,79,119)"/>
<polygon points="703,327 724,283 689,324" style="fill:rgb(122,136,158)"/>
<polygon points="682,120 663,78 645,84" style="fill:rgb(199,175,141)"/>
<polygon points="645,84 663,78 613,60" style="fill:rgb(83,115,77)"/>
<polygon points="613,60 615,0 536,30" style="fill:rgb(206,178,140)"/>
<polygon points="136,319 114,381 186,361" style="fill:rgb(188,158,81)"/>
<polygon points="140,489 216,546 240,507" style="fill:rgb(135,121,85)"/>
<polygon points="84,301 114,381 136,319" style="fill:rgb(196,172,100)"/>
<polygon points="453,577 507,569 474,516" style="fill:rgb(122,87,65)"/>
<polygon points="554,525 630,500 552,497" style="fill:rgb(49,51,55)"/>
<polygon points="698,410 718,348 679,375" style="fill:rgb(88,103,133)"/>
<polygon points="507,569 567,544 554,525" style="fill:rgb(126,130,131)"/>
<polygon points="567,544 630,500 554,525" style="fill:rgb(103,112,123)"/>
<polygon points="630,485 666,461 598,453" style="fill:rgb(20,17,21)"/>
<polygon points="453,577 459,584 507,569" style="fill:rgb(136,131,128)"/>
<polygon points="389,592 416,560 335,546" style="fill:rgb(106,77,42)"/>
<polygon points="658,494 666,461 630,485" style="fill:rgb(20,18,18)"/>
<polygon points="700,423 698,410 660,421" style="fill:rgb(178,175,160)"/>
<polygon points="700,423 660,421 668,443" style="fill:rgb(247,245,240)"/>
<polygon points="182,64 152,66 142,99" style="fill:rgb(212,219,218)"/>
<polygon points="248,23 152,66 182,64" style="fill:rgb(226,228,229)"/>
<polygon points="77,235 120,236 136,178" style="fill:rgb(136,122,79)"/>
<polygon points="120,236 84,301 136,319" style="fill:rgb(160,138,88)"/>
<polygon points="338,592 389,592 335,546" style="fill:rgb(119,100,70)"/>
<polygon points="734,194 682,120 674,154" style="fill:rgb(217,225,228)"/>
<polygon points="682,120 696,106 663,78" style="fill:rgb(201,175,140)"/>
<polygon points="734,194 674,154 709,203" style="fill:rgb(197,207,209)"/>
<polygon points="718,348 738,278 724,283" style="fill:rgb(168,180,192)"/>
<polygon points="724,283 738,278 709,203" style="fill:rgb(183,193,200)"/>
<polygon points="702,439 700,423 668,443" style="fill:rgb(240,237,227)"/>
<polygon points="698,410 718,413 718,348" style="fill:rgb(165,175,185)"/>
<polygon points="752,365 757,272 738,278" style="fill:rgb(223,226,227)"/>
<polygon points="738,278 734,194 709,203" style="fill:rgb(198,197,207)"/>
<polygon points="81,159 154,150 142,99" style="fill:rgb(133,139,135)"/>
<polygon points="58,209 77,235 136,178" style="fill:rgb(143,141,119)"/>
<polygon points="305,592 338,592 335,546" style="fill:rgb(105,95,78)"/>
<polygon points="685,48 613,60 663,78" style="fill:rgb(181,161,127)"/>
<polygon points="685,48 615,0 613,60" style="fill:rgb(191,166,131)"/>
<polygon points="536,30 615,0 435,0" style="fill:rgb(216,194,163)"/>
<polygon points="338,592 380,600 389,592" style="fill:rgb(171,178,178)"/>
<polygon points="389,592 380,600 459,584" style="fill:rgb(174,180,181)"/>
<polygon points="621,541 658,494 630,500" style="fill:rgb(232,229,219)"/>
<polygon points="630,500 658,494 630,485" style="fill:rgb(158,151,135)"/>
<polygon points="704,454 702,439 668,443" style="fill:rgb(133,120,106)"/>
<polygon points="704,454 668,443 666,461" style="fill:rgb(83,74,70)"/>
<polygon points="700,423 718,413 698,410" style="fill:rgb(128,131,127)"/>
<polygon points="240,507 216,546 272,535" style="fill:rgb(135,121,87)"/>
<polygon points="272,535 305,592 335,546" style="fill:rgb(106,93,63)"/>
<polygon points="140,489 240,507 183,417" style="fill:rgb(134,119,81)"/>
<polygon points="718,424 718,413 700,423" style="fill:rgb(155,155,146)"/>
<polygon points="216,546 305,592 272,535" style="fill:rgb(130,120,93)"/>
<polygon points="338,592 305,592 380,600" style="fill:rgb(186,194,196)"/>
<polygon points="74,149 81,159 142,99" style="fill:rgb(175,177,163)"/>
<polygon points="721,436 718,424 702,439" style="fill:rgb(243,242,235)"/>
<polygon points="702,439 718,424 700,423" style="fill:rgb(247,246,240)"/>
<polygon points="752,365 738,278 718,348" style="fill:rgb(210,218,224)"/>
<polygon points="567,544 621,541 630,500" style="fill:rgb(227,227,226)"/>
<polygon points="687,491 704,454 666,461" style="fill:rgb(17,15,17)"/>
<polygon points="507,600 621,541 567,544" style="fill:rgb(229,229,225)"/>
<polygon points="507,600 567,544 507,569" style="fill:rgb(218,221,221)"/>
<polygon points="752,365 718,348 718,413" style="fill:rgb(215,222,225)"/>
<polygon points="738,278 757,272 734,194" style="fill:rgb(223,226,227)"/>
<polygon points="759,107 710,89 696,106" style="fill:rgb(178,157,129)"/>
<polygon points="696,106 710,89 663,78" style="fill:rgb(183,161,131)"/>
<polygon points="759,107 696,106 734,194" style="fill:rgb(213,183,138)"/>
<polygon points="380,600 507,600 459,584" style="fill:rgb(209,216,219)"/>
<polygon points="459,584 507,600 507,569" style="fill:rgb(206,211,213)"/>
<polygon points="687,491 666,461 658,494" style="fill:rgb(10,9,9)"/>
<polygon points="85,403 140,489 183,417" style="fill:rgb(149,130,83)"/>
<polygon points="85,403 183,417 114,381" style="fill:rgb(164,141,80)"/>
<polygon points="710,89 685,48 663,78" style="fill:rgb(161,146,124)"/>
<polygon points="56,354 114,381 84,301" style="fill:rgb(142,126,82)"/>
<polygon points="56,354 85,403 114,381" style="fill:rgb(142,125,83)"/>
<polygon points="61,140 74,149 142,99" style="fill:rgb(210,214,209)"/>
<polygon points="81,159 58,209 136,178" style="fill:rgb(115,119,110)"/>
<polygon points="723,444 721,436 702,439" style="fill:rgb(157,149,133)"/>
<polygon points="800,422 800,401 718,413" style="fill:rgb(127,128,122)"/>
<polygon points="40,209 58,209 81,159" style="fill:rgb(162,162,145)"/>
<polygon points="77,235 45,233 84,301" style="fill:rgb(51,64,76)"/>
<polygon points="800,401 752,365 718,413" style="fill:rgb(197,172,142)"/>
<polygon points="621,541 687,491 658,494" style="fill:rgb(205,198,183)"/>
<polygon points="704,454 723,444 702,439" style="fill:rgb(119,108,95)"/>
<polygon points="140,489 204,561 216,546" style="fill:rgb(133,133,119)"/>
<polygon points="216,546 202,568 305,592" style="fill:rgb(143,150,153)"/>
<polygon points="724,459 723,444 704,454" style="fill:rgb(72,64,62)"/>
<polygon points="800,422 718,413 718,424" style="fill:rgb(165,165,152)"/>
<polygon points="31,330 56,354 84,301" style="fill:rgb(69,76,85)"/>
<polygon points="40,209 45,233 58,209" style="fill:rgb(154,156,143)"/>
<polygon points="58,209 45,233 77,235" style="fill:rgb(40,58,79)"/>
<polygon points="125,515 202,568 204,561" style="fill:rgb(172,180,182)"/>
<polygon points="204,561 202,568 216,546" style="fill:rgb(157,164,166)"/>
<polygon points="720,489 724,459 704,454" style="fill:rgb(20,15,18)"/>
<polygon points="800,422 718,424 721,436" style="fill:rgb(246,245,239)"/>
<polygon points="152,66 61,140 142,99" style="fill:rgb(217,221,221)"/>
<polygon points="74,149 40,209 81,159" style="fill:rgb(189,188,170)"/>
<polygon points="61,140 40,209 74,149" style="fill:rgb(219,223,219)"/>
<polygon points="45,233 29,311 84,301" style="fill:rgb(98,105,105)"/>
<polygon points="85,475 125,515 140,489" style="fill:rgb(146,153,156)"/>
<polygon points="140,489 125,515 204,561" style="fill:rgb(148,153,149)"/>
<polygon points="85,475 140,489 85,403" style="fill:rgb(156,157,144)"/>
<polygon points="11,232 28,235 40,209" style="fill:rgb(217,225,222)"/>
<polygon points="40,209 28,235 45,233" style="fill:rgb(184,186,170)"/>
<polygon points="687,491 720,489 704,454" style="fill:rgb(18,14,14)"/>
<polygon points="800,422 721,436 800,433" style="fill:rgb(238,237,229)"/>
<polygon points="735,569 720,489 687,491" style="fill:rgb(202,171,132)"/>
<polygon points="18,303 29,311 45,233" style="fill:rgb(142,146,136)"/>
<polygon points="52,424 85,475 85,403" style="fill:rgb(127,133,136)"/>
<polygon points="29,311 31,330 84,301" style="fill:rgb(52,59,73)"/>
<polygon points="791,90 759,107 800,105" style="fill:rgb(90,111,169)"/>
<polygon points="725,39 692,0 685,48" style="fill:rgb(80,101,144)"/>
<polygon points="52,424 85,403 56,354" style="fill:rgb(126,128,124)"/>
<polygon points="685,48 692,0 615,0" style="fill:rgb(186,170,146)"/>
<polygon points="725,39 685,48 710,89" style="fill:rgb(47,84,149)"/>
<polygon points="759,107 725,39 710,89" style="fill:rgb(61,99,153)"/>
<polygon points="200,600 199,592 107,545" style="fill:rgb(187,180,174)"/>
<polygon points="107,545 199,592 202,568" style="fill:rgb(219,223,223)"/>
<polygon points="202,568 199,592 305,592" style="fill:rgb(217,223,223)"/>
<polygon points="305,592 200,600 380,600" style="fill:rgb(221,228,227)"/>
<polygon points="17,369 30,359 31,330" style="fill:rgb(172,176,169)"/>
<polygon points="31,330 30,359 56,354" style="fill:rgb(133,137,135)"/>
<polygon points="30,359 52,424 56,354" style="fill:rgb(133,138,139)"/>
<polygon points="29,311 18,303 31,330" style="fill:rgb(152,157,147)"/>
<polygon points="28,235 18,303 45,233" style="fill:rgb(173,175,160)"/>
<polygon points="107,545 202,568 125,515" style="fill:rgb(221,224,224)"/>
<polygon points="199,592 200,600 305,592" style="fill:rgb(214,215,210)"/>
<polygon points="52,424 77,480 85,475" style="fill:rgb(171,179,181)"/>
<polygon points="85,475 77,480 125,515" style="fill:rgb(177,186,187)"/>
<polygon points="61,140 11,232 40,209" style="fill:rgb(223,228,229)"/>
<polygon points="28,235 0,291 18,303" style="fill:rgb(208,214,206)"/>
<polygon points="0,291 17,369 18,303" style="fill:rgb(210,216,213)"/>
<polygon points="18,303 17,369 31,330" style="fill:rgb(176,180,171)"/>
<polygon points="30,359 17,369 52,424" style="fill:rgb(175,180,174)"/>
<polygon points="52,424 38,431 77,480" style="fill:rgb(195,201,199)"/>
<polygon points="17,369 38,431 52,424" style="fill:rgb(198,203,199)"/>
<polygon points="11,232 0,291 28,235" style="fill:rgb(221,231,232)"/>
<polygon points="77,480 107,545 125,515" style="fill:rgb(222,226,225)"/>
<polygon points="55,493 107,545 77,480" style="fill:rgb(229,234,238)"/>
<polygon points="721,436 723,444 800,433" style="fill:rgb(151,145,130)"/>
<polygon points="752,365 800,401 757,272" style="fill:rgb(213,183,145)"/>
<polygon points="800,105 759,107 734,194" style="fill:rgb(213,186,150)"/>
<polygon points="800,105 734,194 757,272" style="fill:rgb(208,178,141)"/>
<polygon points="759,107 791,90 725,39" style="fill:rgb(68,116,182)"/>
<polygon points="725,39 781,28 692,0" style="fill:rgb(106,108,114)"/>
<polygon points="800,433 723,444 800,448" style="fill:rgb(113,103,92)"/>
<polygon points="19,441 55,493 38,431" style="fill:rgb(228,232,236)"/>
<polygon points="38,431 55,493 77,480" style="fill:rgb(227,234,235)"/>
<polygon points="800,401 800,105 757,272" style="fill:rgb(210,181,144)"/>
<polygon points="0,291 0,380 17,369" style="fill:rgb(223,234,238)"/>
<polygon points="17,369 0,380 38,431" style="fill:rgb(227,235,236)"/>
<polygon points="800,448 723,444 724,459" style="fill:rgb(77,62,60)"/>
<polygon points="0,380 19,441 38,431" style="fill:rgb(228,234,237)"/>
<polygon points="800,483 724,459 720,489" style="fill:rgb(12,7,8)"/>
<polygon points="800,483 800,448 724,459" style="fill:rgb(18,10,12)"/>
<polygon points="800,105 800,63 791,90" style="fill:rgb(77,117,191)"/>
<polygon points="791,90 800,63 725,39" style="fill:rgb(87,142,202)"/>
<polygon points="800,63 781,28 725,39" style="fill:rgb(102,117,134)"/>
<polygon points="507,600 735,569 621,541" style="fill:rgb(181,155,125)"/>
<polygon points="621,541 735,569 687,491" style="fill:rgb(193,164,130)"/>
<polygon points="735,569 800,483 720,489" style="fill:rgb(206,175,135)"/>
<polygon points="800,63 800,0 781,28" style="fill:rgb(88,91,99)"/>
<polygon points="781,28 800,0 692,0" style="fill:rgb(82,82,87)"/>
<polygon points="152,66 0,0 61,140" style="fill:rgb(221,201,184)"/>
<polygon points="61,140 0,0 11,232" style="fill:rgb(220,197,177)"/>
<polygon points="11,232 0,0 0,291" style="fill:rgb(218,195,169)"/>
<polygon points="248,23 0,0 152,66" style="fill:rgb(223,202,183)"/>
<polygon points="378,0 0,0 248,23" style="fill:rgb(223,202,179)"/>
<polygon points="507,600 800,600 735,569" style="fill:rgb(208,177,136)"/>
<polygon points="735,569 800,600 800,483" style="fill:rgb(203,172,134)"/>
<polygon points="55,493 0,600 107,545" style="fill:rgb(217,187,148)"/>
<polygon points="107,545 0,600 200,600" style="fill:rgb(212,182,142)"/>
<polygon points="19,441 0,600 55,493" style="fill:rgb(214,183,145)"/>
<polygon points="0,380 0,600 19,441" style="fill:rgb(214,184,146)"/>
</svg>